<?xml version="1.0" encoding="UTF-8"?>
<svg width="32px" height="32px" viewBox="0 0 32 32" version="1.1" xmlns="http://www.w3.org/2000/svg" xmlns:xlink="http://www.w3.org/1999/xlink">
    <!-- Generator: Sketch 42 (36781) - http://www.bohemiancoding.com/sketch -->
    <title>lines-menu (1)</title>
    <desc>Created with Sketch.</desc>
    <defs></defs>
    <g id="Page-1" stroke="none" stroke-width="1" fill="none" fill-rule="evenodd">
        <g id="lines-menu-(1)" fill="#FFFFFF">
            <g id="Capa_1">
                <g id="Menu">
                    <path d="M2.85233466,7.63056085 L29.0938645,7.63056085 C30.6691315,7.63056085 31.9463267,5.93456085 31.9463267,3.84253968 C31.9463267,1.75051852 30.669259,0.0545185185 29.0938645,0.0545185185 L2.85233466,0.0545185185 C1.27706773,0.0546878307 0,1.75051852 0,3.84270899 C0,5.93473016 1.27706773,7.63056085 2.85233466,7.63056085 Z M29.0938645,12.176254 L2.85233466,12.176254 C1.27706773,12.176254 0,13.872254 0,15.9642751 C0,18.0564656 1.27706773,19.7522963 2.85233466,19.7522963 L29.0938645,19.7522963 C30.6691315,19.7522963 31.9463267,18.0564656 31.9463267,15.9642751 C31.9463267,13.872254 30.6691315,12.176254 29.0938645,12.176254 Z M29.0938645,24.2979894 L2.85233466,24.2979894 C1.27706773,24.2979894 0,25.9938201 0,28.0860106 C0,30.1780317 1.27706773,31.8740317 2.85233466,31.8740317 L29.0938645,31.8740317 C30.6691315,31.8740317 31.9463267,30.1780317 31.9463267,28.0860106 C31.9463267,25.9938201 30.6691315,24.2979894 29.0938645,24.2979894 Z" id="Shape"></path>
                </g>
            </g>
        </g>
    </g>
</svg>