<?xml version="1.0" encoding="UTF-8"?>
<svg width="16px" height="16px" viewBox="0 0 16 16" version="1.1" xmlns="http://www.w3.org/2000/svg" xmlns:xlink="http://www.w3.org/1999/xlink">
    <!-- Generator: Sketch 42 (36781) - http://www.bohemiancoding.com/sketch -->
    <title>speech-bubbles-comment-option</title>
    <desc>Created with Sketch.</desc>
    <defs></defs>
    <g id="Page-1" stroke="none" stroke-width="1" fill="none" fill-rule="evenodd">
        <g id="speech-bubbles-comment-option" fill-rule="nonzero" fill="#0EEBAC">
            <g id="Capa_1">
                <g id="Group">
                    <path d="M9.43521875,10.8627295 C10.4016563,10.3450918 11.1645938,9.64049628 11.7236563,8.74866501 C12.2826563,7.85703226 12.5621875,6.88603474 12.5621875,5.83563275 C12.5621875,4.78519107 12.2826563,3.81411414 11.7234375,2.92244169 C11.1644375,2.03076923 10.401625,1.32609429 9.4350625,0.808337469 C8.4685,0.29066005 7.41721875,0.0319205955 6.2810625,0.0319205955 C5.145,0.0319205955 4.09371875,0.290818859 3.12709375,0.808337469 C2.1605625,1.32605459 1.39771875,2.03072953 0.8386875,2.92244169 C0.27959375,3.81427295 0,4.78519107 0,5.83567246 C0,6.73484864 0.21146875,7.58157816 0.63375,8.3750273 C1.056,9.16831762 1.63596875,9.83722084 2.37346875,10.3812208 C2.31403125,10.5627395 2.2530625,10.7287742 2.19059375,10.8801191 C2.12809375,11.0312258 2.0538125,11.1765757 1.9675,11.3164864 C1.88125,11.4564367 1.81440625,11.5659355 1.76678125,11.6450223 C1.7191875,11.7243474 1.641875,11.8360695 1.53475,11.9793945 C1.42765625,12.1229975 1.35921875,12.2174491 1.32953125,12.26267 C1.32953125,12.2550868 1.317625,12.2721985 1.2938125,12.3137667 C1.26996875,12.355335 1.25659375,12.3741141 1.25365625,12.3705806 C1.25065625,12.3664913 1.23875,12.3853896 1.2179375,12.4269578 C1.197125,12.4685658 1.1866875,12.48933 1.1866875,12.48933 L1.16434375,12.5458263 C1.15553125,12.5686551 1.14946875,12.5909677 1.14653125,12.6137965 C1.14353125,12.6363077 1.14203125,12.6610422 1.14203125,12.6874045 C1.14203125,12.7137667 1.14496875,12.7382233 1.15103125,12.7610124 C1.1629375,12.8591166 1.197125,12.9383226 1.253625,12.999067 C1.31009375,13.0594144 1.371,13.0895484 1.4365,13.0895484 L1.46328125,13.0895484 C1.760625,13.036665 2.0164375,12.9762382 2.23053125,12.9081489 C3.14653125,12.6060149 3.973375,12.1221638 4.71090625,11.4572308 C5.2461875,11.5781638 5.769625,11.6385906 6.281125,11.6385906 C7.41728125,11.6391067 8.4686875,11.3804467 9.43521875,10.8627295 Z" id="Shape"></path>
                    <path d="M15.3548125,11.2820248 C15.77725,10.4923871 15.9883125,9.6444268 15.9883125,8.73750868 C15.9883125,7.8079206 15.765,6.93836228 15.3190625,6.129866 C14.8729062,5.32144913 14.266125,4.64877419 13.4989062,4.11223821 C13.6355937,4.67894789 13.704,5.25324069 13.704,5.83523573 C13.704,6.84776179 13.505,7.80748387 13.1062187,8.71440199 C12.7077187,9.62104218 12.1366875,10.421995 11.3932187,11.11734 C10.7032187,11.7520993 9.9180625,12.2393648 9.0376875,12.5795335 C8.1575625,12.919464 7.23853125,13.0896278 6.280875,13.0896278 C6.1025,13.0896278 5.84075,13.07466 5.4958125,13.0444864 C6.6913125,14.0417667 8.09509375,14.540665 9.7069375,14.540665 C10.2185312,14.540665 10.7419062,14.4800794 11.2772812,14.3591861 C12.0147812,15.024397 12.8416562,15.5078114 13.7575937,15.810263 C13.9717187,15.8784715 14.2275,15.9387792 14.5249062,15.9916228 C14.59625,15.999206 14.6618125,15.9727246 14.72125,15.9122581 C14.7807187,15.8518313 14.8194375,15.768933 14.8371875,15.6632457 C14.8344062,15.617866 14.8371875,15.5929727 14.8461562,15.5893598 C14.8549375,15.5857866 14.8534375,15.5610918 14.8416562,15.5158313 C14.8299062,15.4704119 14.8239062,15.4477419 14.8239062,15.4477419 L14.8016562,15.391206 C14.7954687,15.3762779 14.7854062,15.3553548 14.7704375,15.3289926 C14.7555625,15.3027891 14.7437187,15.2836129 14.7347187,15.2723375 C14.7259687,15.261062 14.7126875,15.2420447 14.6947187,15.2158015 C14.6769687,15.189598 14.665,15.1724467 14.659,15.1648635 C14.6292812,15.1194839 14.5609062,15.025072 14.453875,14.8814293 C14.3467187,14.7379851 14.2695312,14.6265409 14.2219375,14.5472159 C14.1743437,14.4678511 14.1074062,14.3583524 14.0211875,14.218402 C13.935,14.0787295 13.8605625,13.9332208 13.7980937,13.7820347 C13.7356562,13.630928 13.6746875,13.4646154 13.6152187,13.2833747 C14.3527812,12.7388189 14.9325938,12.0719404 15.3548125,11.2820248 Z" id="Shape"></path>
                </g>
            </g>
        </g>
    </g>
</svg>