<?xml version="1.0" encoding="UTF-8"?>
<svg width="17px" height="17px" viewBox="0 0 17 17" version="1.1" xmlns="http://www.w3.org/2000/svg" xmlns:xlink="http://www.w3.org/1999/xlink">
    <!-- Generator: Sketch 42 (36781) - http://www.bohemiancoding.com/sketch -->
    <title>black</title>
    <desc>Created with Sketch.</desc>
    <defs>
        <filter x="-50%" y="-50%" width="200%" height="200%" filterUnits="objectBoundingBox" id="filter-1">
            <feOffset dx="1" dy="1" in="SourceAlpha" result="shadowOffsetOuter1"></feOffset>
            <feColorMatrix values="0 0 0 0 0.00703924123   0 0 0 0 0.156356293   0 0 0 0 0.113790798  0 0 0 0.912052763 0" type="matrix" in="shadowOffsetOuter1" result="shadowMatrixOuter1"></feColorMatrix>
            <feMerge>
                <feMergeNode in="shadowMatrixOuter1"></feMergeNode>
                <feMergeNode in="SourceGraphic"></feMergeNode>
            </feMerge>
        </filter>
    </defs>
    <g id="Page-1" stroke="none" stroke-width="1" fill="none" fill-rule="evenodd">
        <g id="black" filter="url(#filter-1)" fill-rule="nonzero" fill="#FFFFFF">
            <g id="Capa_1">
                <g id="Group">
                    <path d="M7.99066998,7.99150797 C9.19249628,7.99150797 10.2182829,7.60116629 11.0683077,6.82081093 C11.9184119,6.04045558 12.3435434,5.09878815 12.3435434,3.99566287 C12.3435434,2.89271982 11.9184119,1.95101595 11.0683077,1.17047836 C10.218005,0.390159453 9.19217866,0 7.99066998,0 C6.78916129,0 5.76317618,0.390159453 4.91315136,1.17047836 C4.06296774,1.95101595 3.63787593,2.89268337 3.63787593,3.99566287 C3.63787593,5.09878815 4.06296774,6.04045558 4.91315136,6.82081093 C5.76341439,7.60116629 6.78912159,7.99150797 7.99066998,7.99150797 Z" id="Shape"></path>
                    <path d="M15.9308387,12.2108793 C15.9043176,11.8606651 15.8513548,11.4824966 15.7721489,11.0766287 C15.6927841,10.6707608 15.592536,10.2945968 15.471603,9.94758998 C15.35067,9.60083827 15.1881687,9.26261503 14.984139,8.93306606 C14.7801886,8.60355353 14.5459454,8.32266059 14.2812903,8.09016856 C14.0166352,7.85774943 13.6936576,7.67230979 13.3123176,7.53359453 C12.9305012,7.39491572 12.5091811,7.32544875 12.0481985,7.32544875 C11.980268,7.32544875 11.8215385,7.40001822 11.572129,7.54919362 C11.3229578,7.69836902 11.0414293,7.86489294 10.7278213,8.04880182 C10.4142531,8.23238269 10.0059553,8.39901595 9.50364268,8.54793622 C9.00109181,8.69711162 8.49675434,8.77171754 7.99027295,8.77171754 C7.48399007,8.77171754 6.9796129,8.69711162 6.47714144,8.54793622 C5.97470968,8.39901595 5.56653102,8.23238269 5.25292308,8.04880182 C4.93935484,7.86489294 4.65790571,7.69840547 4.40857568,7.54919362 C4.15912655,7.40001822 4.00051613,7.32544875 3.9325062,7.32544875 C3.47156328,7.32544875 3.05024318,7.39491572 2.66866501,7.53359453 C2.28700744,7.67230979 1.96399007,7.85789522 1.69945409,8.09016856 C1.43499752,8.32266059 1.20071464,8.60355353 0.996764268,8.93306606 C0.792813896,9.26261503 0.630352357,9.60098405 0.509419355,9.94758998 C0.388526055,10.2945968 0.28835732,10.6707608 0.209032258,11.0766287 C0.129627792,11.4824966 0.0767444169,11.86041 0.0502630273,12.2108793 C0.02382134,12.5613485 0.0106401985,12.9203462 0.0106401985,13.2880182 C0.0106401985,14.1203098 0.286531017,14.7777677 0.838114144,15.259918 C1.38981638,15.7418861 2.12287841,15.9828337 3.03722084,15.9828337 L12.9442382,15.9828337 C13.8585012,15.9828337 14.5914839,15.7418861 15.1432655,15.259918 C15.6951663,14.7777677 15.9708586,14.1204191 15.9708586,13.2880182 C15.9707792,12.9203462 15.957598,12.5613485 15.9308387,12.2108793 Z" id="Shape"></path>
                </g>
            </g>
        </g>
    </g>
</svg>