<?xml version="1.0" encoding="UTF-8"?>
<svg width="16px" height="16px" viewBox="0 0 16 16" version="1.1" xmlns="http://www.w3.org/2000/svg" xmlns:xlink="http://www.w3.org/1999/xlink">
    <!-- Generator: Sketch 42 (36781) - http://www.bohemiancoding.com/sketch -->
    <title>heart</title>
    <desc>Created with Sketch.</desc>
    <defs></defs>
    <g id="Page-1" stroke="none" stroke-width="1" fill="none" fill-rule="evenodd">
        <g id="heart" fill-rule="nonzero" fill="#0EEBAC">
            <g id="Capa_1">
                <path d="M7.25050916,15.6228833 C7.44928717,15.8462243 7.71649695,15.9707094 7.99674134,15.9707094 C8.27372709,15.9707094 8.54745418,15.8425629 8.74297352,15.6228833 L14.598778,9.04347826 C15.488391,8.04393593 15.9771894,6.71487414 15.9804481,5.30526316 C15.9804481,3.89199085 15.4916497,2.56292906 14.6020367,1.56338673 C13.7124236,0.563844394 12.5327902,0.0146453089 11.2749491,0.0146453089 C10.0399185,0.0146453089 8.87657841,0.545537757 7.99348269,1.51212815 C7.10712831,0.54187643 5.94052953,0.00732265446 4.70224033,0.00732265446 C3.44765784,0.00732265446 2.26802444,0.556521739 1.37841141,1.55240275 C0.488798371,2.55194508 0,3.88100686 0,5.29427918 C0,6.70389016 0.492057026,8.03295195 1.38167006,9.03249428 L7.25050916,15.6228833 Z M1.94541752,2.18947368 C2.68187373,1.36201373 3.66272912,0.904347826 4.70549898,0.904347826 C5.74826884,0.904347826 6.73238289,1.36201373 7.47209776,2.19313501 L7.71323829,2.46407323 C7.78818737,2.54828375 7.8892057,2.59588101 7.99674134,2.59588101 L7.99674134,2.59588101 C8.10101833,2.59588101 8.20529532,2.54828375 8.2802444,2.46407323 L8.51486762,2.20045767 C9.25458248,1.36933638 10.2354379,0.911670481 11.2814664,0.911670481 C12.3242363,0.911670481 13.3050916,1.36933638 14.0415479,2.19679634 C14.7812627,3.02791762 15.185336,4.12997712 15.185336,5.30160183 C15.185336,6.47322654 14.7780041,7.57528604 14.0382892,8.40640732 L8.17922607,14.9894737 C8.08472505,15.0956522 7.91201629,15.0956522 7.81425662,14.9894737 L1.94867617,8.39908467 C1.2089613,7.56796339 0.801629328,6.46590389 0.801629328,5.29427918 C0.801629328,4.12265446 1.2089613,3.02059497 1.94541752,2.18947368 Z" id="Shape"></path>
            </g>
        </g>
    </g>
</svg>