<?xml version="1.0" encoding="UTF-8"?>
<svg width="18px" height="18px" viewBox="0 0 18 18" version="1.1" xmlns="http://www.w3.org/2000/svg" xmlns:xlink="http://www.w3.org/1999/xlink">
    <!-- Generator: Sketch 42 (36781) - http://www.bohemiancoding.com/sketch -->
    <title>icon-like-click</title>
    <desc>Created with Sketch.</desc>
    <defs></defs>
    <g id="Page-1" stroke="none" stroke-width="1" fill="none" fill-rule="evenodd">
        <g id="icon-like-click" transform="translate(1.000000, 1.000000)" fill-rule="nonzero" stroke="#DB4437" fill="#DB4437">
            <g id="icon-like">
                <g id="Page-1">
                    <g id="icon-like">
                        <g id="heart">
                            <g id="Page-1">
                                <g id="heart">
                                    <g id="Capa_1">
                                        <path d="M7.25938008,15.6513761 L1.38336052,9.04587155 C0.492659052,8.04403669 0,6.7119266 0,5.29908257 C0,3.8825688 0.48939641,2.55045871 1.38009788,1.54862386 C2.27079934,0.550458715 3.45187601,0 4.70799347,0 C5.9477977,0 7.1158238,0.535779816 8.00326263,1.50825688 C8.8874388,0.53944954 10.0522022,0.00733944951 11.2887439,0.00733944951 C12.5481239,0.00733944951 13.7292006,0.557798165 14.6199021,1.55963303 C15.5106036,2.56146789 16,3.89357798 16,5.31009174 C15.9967373,6.72293577 15.5073409,8.05504587 14.6166394,9.05688072 L8.75367045,15.6513761 C8.55791189,15.8715596 8.2838499,16 8.00652526,16 C7.725938,16 7.45840129,15.8752294 7.25938008,15.6513761 Z" id="Combined-Shape"></path>
                                    </g>
                                </g>
                            </g>
                        </g>
                    </g>
                </g>
            </g>
        </g>
    </g>
</svg>